<svg xmlns="http://www.w3.org/2000/svg" viewBox="0 0 960 720" role="img" aria-labelledby="title">
  <title id="title">Side view cartoon lumberjack holding axe</title>
  <defs>
    <linearGradient id="skin" x1="280" y1="150" x2="540" y2="430" gradientUnits="userSpaceOnUse">
      <stop offset="0" stop-color="#ffc06f"/>
      <stop offset="1" stop-color="#f39b51"/>
    </linearGradient>
    <linearGradient id="hat" x1="250" y1="80" x2="440" y2="220" gradientUnits="userSpaceOnUse">
      <stop offset="0" stop-color="#1764aa"/>
      <stop offset="1" stop-color="#0a3266"/>
    </linearGradient>
    <linearGradient id="beard" x1="300" y1="210" x2="450" y2="340" gradientUnits="userSpaceOnUse">
      <stop offset="0" stop-color="#743a12"/>
      <stop offset="1" stop-color="#321607"/>
    </linearGradient>
    <linearGradient id="axeHead" x1="710" y1="300" x2="900" y2="420" gradientUnits="userSpaceOnUse">
      <stop offset="0" stop-color="#f1f5f9"/>
      <stop offset="0.45" stop-color="#9aa4a8"/>
      <stop offset="1" stop-color="#4b5560"/>
    </linearGradient>
    <filter id="shadow" x="-12%" y="-16%" width="124%" height="132%">
      <feDropShadow dx="0" dy="10" stdDeviation="5" flood-color="#0f172a" flood-opacity="0.24"/>
    </filter>
    <style>
      .outline {
        stroke: #070b13;
        stroke-width: 14;
        stroke-linecap: round;
        stroke-linejoin: round;
      }
      .detail {
        stroke-linecap: round;
        stroke-linejoin: round;
      }
    </style>
  </defs>

  <g filter="url(#shadow)">
    <g class="outline">
      <path d="M488 390 718 282" fill="none" stroke="#6f370f" stroke-width="38"/>
      <path d="M488 390 718 282" fill="none" stroke="#a1581a" stroke-width="22"/>
      <path d="M706 270 782 240c38 24 68 70 86 121-32 38-82 56-137 51 11-54 3-99-25-142Z" fill="url(#axeHead)"/>
      <path d="M734 292c18 31 23 66 16 106" fill="none" stroke="#374151" stroke-width="8" opacity="0.62"/>
      <path d="M784 258c27 21 47 54 60 94" fill="none" stroke="#ffffff" stroke-width="8" opacity="0.46"/>

      <path d="M186 442c-38 26-59 74-52 128 52 28 137 22 182-14 8-61-51-123-130-114Z" fill="#6b3a13"/>
      <path d="M325 442c78-11 135 46 130 111-50 37-139 44-197 15 1-62 26-108 67-126Z" fill="#6b3a13"/>
      <path d="M156 548c45 13 97 10 148-10M282 548c50 16 113 9 158-12" fill="none" stroke="#351706" stroke-width="10" opacity="0.78"/>

      <path d="M178 348c39-42 173-54 246-15l22 134c-72 44-207 48-286 6l18-125Z" fill="#164a7a"/>
      <path d="M172 470c82 36 198 33 274-3" fill="none" stroke="#0b2e54" stroke-width="14"/>
      <path d="M167 324h270v52H167Z" fill="#5a3214"/>
      <path d="M285 304h75c21 0 33 12 33 33v16c0 20-12 32-33 32h-75c-21 0-33-12-33-32v-16c0-21 12-33 33-33Z" fill="#facc15"/>
      <path d="M294 324h55v39h-55Z" fill="#5a3214" stroke-width="8"/>

      <path d="M157 242c33-57 190-62 264-10 45 32 51 105 28 159-75 50-221 52-303-2-24-63-18-112 11-147Z" fill="#dc2626"/>
      <path d="M202 227v163M262 216v185M326 217v183M390 238v145" fill="none" stroke="#991b1b" stroke-width="10" opacity="0.62"/>
      <path d="M148 284h292M137 343h318" fill="none" stroke="#991b1b" stroke-width="11" opacity="0.62"/>
      <path d="M160 247c-43 33-63 94-51 150 9 44 35 73 70 73 38 0 62-29 61-69-1-49-30-110-80-154Z" fill="#dc2626"/>
      <path d="M100 358c-38 16-52 60-32 94 20 35 69 42 104 20 30-19 36-56 15-84-18-25-53-42-87-30Z" fill="url(#skin)"/>
      <path d="M146 416c18 1 34 12 42 29" fill="none" stroke="#d9773f" stroke-width="8"/>

      <path d="M415 304c48 21 88 50 126 86" fill="none" stroke="#dc2626" stroke-width="70"/>
      <path d="M413 304c48 22 88 52 127 86" fill="none" stroke="#991b1b" stroke-width="11" opacity="0.5"/>
      <path d="M469 373c36-21 72-16 98 17 22 28 15 65-12 84-29 20-72 9-95-24-20-29-18-56 9-77Z" fill="url(#skin)"/>
      <path d="M516 377c39-10 72 13 82 48 8 30-11 57-40 64-31 7-61-15-71-49-9-31 0-54 29-63Z" fill="url(#skin)"/>
      <path d="M485 411c42 2 79 20 102 46" fill="none" stroke="#d9773f" stroke-width="8" opacity="0.55"/>

      <path d="M244 157c35-61 123-85 196-47 51 27 77 77 72 139-18 54-66 87-138 94-82 8-153-31-176-101-8-28 3-61 46-85Z" fill="url(#skin)"/>
      <path d="M202 212c-40 1-63 41-49 81 14 42 64 55 96 24 31-30 15-105-47-105Z" fill="url(#skin)"/>
      <path d="M190 260c19-18 42-12 55 8" fill="none" stroke="#d9773f" stroke-width="9"/>
      <path d="M279 218c-21 84 7 151 78 171 66 18 133-16 151-81-49-16-85-49-80-121-59-25-110-15-149 31Z" fill="url(#beard)"/>
      <path d="M349 282c22 16 50 16 78 0" fill="none" stroke="#fff1c7" stroke-width="8"/>
      <path d="M326 257c29-22 73-18 106 7" fill="none" stroke="#2a1206" stroke-width="18"/>
      <path d="M361 205c35-13 68-10 91 11" fill="none" stroke="#351706" stroke-width="19"/>
      <ellipse cx="402" cy="236" rx="19" ry="29" fill="#0f172a" stroke="none"/>
      <circle cx="410" cy="222" r="6" fill="#ffffff" stroke="none"/>
      <path d="M462 243c22 4 38 17 43 36-11 18-43 20-65 4 0-21 8-36 22-40Z" fill="#ef9657"/>
      <path d="M339 307c26 16 60 17 94 2" fill="none" stroke="#251005" stroke-width="12" opacity="0.72"/>

      <path d="M206 103c28-58 92-91 181-86 66 4 109 36 128 82 39 7 61 34 68 70-99-44-261-25-403 64-16-43-6-93 26-130Z" fill="url(#hat)"/>
      <path d="M180 232c81-78 255-119 398-72 12 28 4 57-17 76-101-40-276-15-385 49-23-8-28-31 4-53Z" fill="#123f76"/>
      <path d="M255 96c63-32 137-39 213-17M254 95c-17 42-22 86-14 136M350 65c18 40 31 85 34 136M449 86c26 29 42 65 46 107" fill="none" stroke="#2b65a4" stroke-width="9" opacity="0.56"/>

      <path d="M156 241c-28 44-32 104-10 169M434 231c32 22 52 60 58 98" fill="none" stroke="#070b13" stroke-width="15"/>
      <path d="M181 244c-25 42-28 93-8 140M412 236c24 19 39 48 44 80" fill="none" stroke="#6b3a13" stroke-width="12"/>
      <circle cx="181" cy="342" r="13" fill="#facc15"/>
      <circle cx="458" cy="314" r="13" fill="#facc15"/>
    </g>
  </g>
</svg>
